<?xml version="1.0" encoding="utf-8"?>
<!-- Generator: Adobe Illustrator 24.1.1, SVG Export Plug-In . SVG Version: 6.00 Build 0)  -->
<svg version="1.1" id="Layer_1" xmlns="http://www.w3.org/2000/svg" xmlns:xlink="http://www.w3.org/1999/xlink" x="0px" y="0px"
	 viewBox="0 0 512 512" style="enable-background:new 0 0 512 512;" xml:space="preserve">
<g>
	<path d="M255.9,116.5l9.4-16.2c5.8-10.1,18.7-13.5,28.8-7.8c10.1,5.8,13.5,18.7,7.7,28.8l-90.3,156.4h65.3
		c21.2,0,33,24.9,23.8,42.1H109.2c-11.7,0-21.1-9.4-21.1-21.1c0-11.7,9.4-21.1,21.1-21.1h53.7l68.7-119.1l-21.5-37.3
		c-5.8-10.1-2.4-22.9,7.7-28.8c10.1-5.8,22.9-2.4,28.8,7.8L255.9,116.5z M174.7,341.6l-20.2,35.1c-5.8,10.1-18.7,13.5-28.8,7.7
		c-10.1-5.8-13.5-18.7-7.7-28.8l15.1-26C149.9,324.3,163.7,328.4,174.7,341.6z M349,277.9h54.8c11.7,0,21.1,9.4,21.1,21.1
		s-9.4,21.1-21.1,21.1h-30.5l20.5,35.6c5.8,10.1,2.4,22.9-7.8,28.8c-10.1,5.8-22.9,2.4-28.8-7.7c-34.6-60-60.6-104.9-77.8-134.8
		c-17.7-30.5-5-61,7.4-71.3C300.8,194.3,321.4,230.1,349,277.9z M256,0C114.6,0,0,114.6,0,256s114.6,256,256,256
		c141.4,0,256-114.6,256-256S397.4,0,256,0z M479,256c0,122.5-99.2,223-223,223c-122.5,0-223-99.2-223-223c0-122.5,99.2-223,223-223
		C378.5,33,479,132.2,479,256z"/>
</g>
</svg>
